{"title":"Atlantis (2013) S01E05 - White Lies HDTV x264 AAC E-Subs [GWC].m","uid":9105425,"size":144723091,"categoryP":"video","categoryS":"tv_shows","magnet":"?xt=urn:btih:d6322ce502068bf8a8b897882c9470c79ac7a784&amp;dn=Atlantis+%282013%29+S01E05+-+White+Lies+HDTV+x264+AAC+E-Subs+%5BGWC%5D.m&amp;tr=udp%3A%2F%2Ftracker.openbittorrent.com%3A80&amp;tr=udp%3A%2F%2Fopen.demonii.com%3A1337&amp;tr=udp%3A%2F%2Ftracker.coppersurfer.tk%3A6969&amp;tr=udp%3A%2F%2Fexodus.desync.com%3A6969","seeders":0,"leechers":1,"uploader":"canc232","files":1,"time":1382857477,"description":"Atlantis (2013) S01E05 - White Lies HDTV x264 AAC E-Subs [GWC]\n\n\n\nSCREENS :\n &lt;a href=&quot;\nhttp://s20.postimg.org/m1btu2by5/Atlantis_2013_S01_E05_White_Lies_HDTV_x264_AA.jpg&quot; rel=&quot;nofollow&quot; target=&quot;_NEW&quot;&gt;\nhttp://s20.postimg.org/m1btu2by5/Atlantis_2013_S01_E05_White_Lies_HDTV_x264_AA.jpg&lt;/a&gt;\n &lt;a href=&quot;\nhttp://s20.postimg.org/s0zkxpwql/Atlantis_2013_S01_E05_White_Lies_HDTV_x264_AA.jpg&quot; rel=&quot;nofollow&quot; target=&quot;_NEW&quot;&gt;\nhttp://s20.postimg.org/s0zkxpwql/Atlantis_2013_S01_E05_White_Lies_HDTV_x264_AA.jpg&lt;/a&gt;\n &lt;a href=&quot;\nhttp://s20.postimg.org/rzl1qk5j1/Atlantis_2013_S01_E05_White_Lies_HDTV_x264_AA.jpg&quot; rel=&quot;nofollow&quot; target=&quot;_NEW&quot;&gt;\nhttp://s20.postimg.org/rzl1qk5j1/Atlantis_2013_S01_E05_White_Lies_HDTV_x264_AA.jpg&lt;/a&gt;\n\n\nMEDIA INFO :\n\nGeneral \nFormat : MPEG-4 \nFormat profile : Base Media \nFile size : 138 MiB \nDuration : 42mn 37s \nOverall bit rate : 453 Kbps \n\nVideo \nFormat : AVC \nFormat profile : &lt;a class=&quot;__cf_email__&quot; href=&quot;/cdn-cgi/l/email-protection&quot; data-cfemail=&quot;430b2a242b030f706d73&quot;&gt;[email&amp;#160;protected]&lt;/a&gt;&lt;script cf-hash='f9e31' type=&quot;text/javascript&quot;&gt;\n/* &lt;![CDATA[ */!function(){try{var t=&quot;currentScript&quot;in document?document.currentScript:function(){for(var t=document.getElementsByTagName(&quot;script&quot;),e=t.length;e--;)if(t[e].getAttribute(&quot;cf-hash&quot;))return t[e]}();if(t&amp;&amp;t.previousSibling){var e,r,n,i,c=t.previousSibling,a=c.getAttribute(&quot;data-cfemail&quot;);if(a){for(e=&quot;&quot;,r=parseInt(a.substr(0,2),16),n=2;a.length-n;n+=2)i=parseInt(a.substr(n,2),16)^r,e+=String.fromCharCode(i);e=document.createTextNode(e),c.parentNode.replaceChild(e,c)}}}catch(u){}}();/* ]]&gt; */&lt;/script&gt; \nFormat settings, ReFrames : 4 frames\nDuration : 42mn 37s \nBit rate : 389 Kbps \nWidth : 720 pixels \nHeight : 404 pixels \nDisplay aspect ratio : 16:9 \nFrame rate : 25.000 fps \nStream size : 119 MiB (86%) \nTitle : Atlantis (2013) S01E05 - White Lies HDTV x264 AAC E-Subs [GWC] \nWriting library : x264 core\n\nAudio \nFormat : AAC \nFormat profile : HE-AAC / LC \nCodec ID : 40 \nDuration : 42mn 37s \nBit rate mode : Variable \nChannel(s) : 2 channels \nSampling rate : 48.0 KHz / 24.0 KHz \nStream size : 18.3 MiB (13%) \nLanguage : English \n\nText \nFormat : Timed Text \nDuration : 42mn 21s \nStream size : 19.1 KiB (0%) \nTitle : English Subtitle by MemoryOnSmells \nLanguage : English","torrent":{"xt":"urn:btih:d6322ce502068bf8a8b897882c9470c79ac7a784","amp;dn":"Atlantis+%282013%29+S01E05+-+White+Lies+HDTV+x264+AAC+E-Subs+%5BGWC%5D.m","amp;tr":["udp%3A%2F%2Ftracker.openbittorrent.com%3A80","udp%3A%2F%2Fopen.demonii.com%3A1337","udp%3A%2F%2Ftracker.coppersurfer.tk%3A6969","udp%3A%2F%2Fexodus.desync.com%3A6969"],"infoHash":"d6322ce502068bf8a8b897882c9470c79ac7a784","infoHashBuffer":{"type":"Buffer","data":[214,50,44,229,2,6,139,248,168,184,151,136,44,148,112,199,154,199,167,132]},"announce":[],"urlList":[]}}